<?xml version="1.0" encoding="UTF-8" standalone="no"?><!DOCTYPE svg PUBLIC "-//W3C//DTD SVG 1.1//EN" "http://www.w3.org/Graphics/SVG/1.1/DTD/svg11.dtd"><svg width="100%" height="100%" viewBox="0 0 64 64" version="1.1" xmlns="http://www.w3.org/2000/svg" xmlns:xlink="http://www.w3.org/1999/xlink" xml:space="preserve" xmlns:serif="http://www.serif.com/" style="fill-rule:evenodd;clip-rule:evenodd;stroke-linecap:round;stroke-linejoin:round;stroke-miterlimit:1.5;"><path d="M58.784,51l-53.568,0c-2.879,0 -5.216,-2.337 -5.216,-5.216l-0,-37.568c-0,-2.879 2.337,-5.216 5.216,-5.216l53.568,-0c2.879,-0 5.216,2.337 5.216,5.216l0,37.568c0,2.879 -2.337,5.216 -5.216,5.216Z" style="fill:#a6cbd5;"/><path d="M58.784,51l-53.568,0c-2.879,0 -5.216,-2.337 -5.216,-5.216l-0,-37.568c-0,-2.879 2.337,-5.216 5.216,-5.216l53.568,-0c2.879,-0 5.216,2.337 5.216,5.216l0,37.568c0,2.879 -2.337,5.216 -5.216,5.216Zm-0,-3c1.223,0 2.216,-0.993 2.216,-2.216l0,-37.568c0,-1.223 -0.993,-2.216 -2.216,-2.216l-53.568,-0c-1.223,-0 -2.216,0.993 -2.216,2.216l-0,37.568c-0,1.223 0.993,2.216 2.216,2.216l53.568,0Z"/><path d="M32,50l0,12" style="fill:none;stroke:#000;stroke-width:3px;"/><path d="M23,62l18,0" style="fill:none;stroke:#000;stroke-width:3px;"/></svg>