<?xml version="1.0" encoding="UTF-8" standalone="no"?><!DOCTYPE svg PUBLIC "-//W3C//DTD SVG 1.1//EN" "http://www.w3.org/Graphics/SVG/1.1/DTD/svg11.dtd"><svg width="100%" height="100%" viewBox="0 0 64 64" version="1.1" xmlns="http://www.w3.org/2000/svg" xmlns:xlink="http://www.w3.org/1999/xlink" xml:space="preserve" xmlns:serif="http://www.serif.com/" style="fill-rule:evenodd;clip-rule:evenodd;stroke-linejoin:round;stroke-miterlimit:2;"><path d="M53,6.564l0,50.872c0,2.519 -2.045,4.564 -4.564,4.564l-32.872,0c-2.519,0 -4.564,-2.045 -4.564,-4.564l-0,-50.872c-0,-2.519 2.045,-4.564 4.564,-4.564l32.872,0c2.519,0 4.564,2.045 4.564,4.564Z" style="fill:#a6cbd5;"/><path d="M53,6.564l0,50.872c0,2.519 -2.045,4.564 -4.564,4.564l-32.872,0c-2.519,0 -4.564,-2.045 -4.564,-4.564l-0,-50.872c-0,-2.519 2.045,-4.564 4.564,-4.564l32.872,0c2.519,0 4.564,2.045 4.564,4.564Zm-3,0c-0,-0.863 -0.701,-1.564 -1.564,-1.564l-32.872,0c-0.863,0 -1.564,0.701 -1.564,1.564l-0,50.872c-0,0.863 0.701,1.564 1.564,1.564l32.872,0c0.863,0 1.564,-0.701 1.564,-1.564l-0,-50.872Z"/><circle cx="32" cy="52" r="3"/></svg>