<?xml version="1.0" encoding="UTF-8" standalone="no"?><!DOCTYPE svg PUBLIC "-//W3C//DTD SVG 1.1//EN" "http://www.w3.org/Graphics/SVG/1.1/DTD/svg11.dtd"><svg width="100%" height="100%" viewBox="0 0 512 512" version="1.1" xmlns="http://www.w3.org/2000/svg" xmlns:xlink="http://www.w3.org/1999/xlink" xml:space="preserve" xmlns:serif="http://www.serif.com/" style="fill-rule:evenodd;clip-rule:evenodd;stroke-linecap:round;stroke-linejoin:round;stroke-miterlimit:1.5;"><g><path d="M354.459,355.031l-0,-147.935" style="fill:none;stroke:#09334f;stroke-width:14px;"/><path d="M449.395,292.166c0,0 -101.443,0.5 -124.432,0c-4.61,-0.1 -9.854,-0.182 -13.504,-3c-7.677,-5.926 -22.237,-23.983 -32.558,-32.557c-4.459,-3.705 -10.573,-5.654 -16.366,-5.89c-24.085,-0.981 -98.143,0 -98.143,0" style="fill:none;stroke:#09334f;stroke-width:14px;"/><path d="M163.936,292.166l-0,-114.078" style="fill:none;stroke:#09334f;stroke-width:14px;"/><path d="M245.911,216.623l37.302,-93.419" style="fill:none;stroke:#09334f;stroke-width:14px;"/><path d="M59.2,292.166c-0,0 100.287,100.911 121.874,121.875c2.054,1.994 4.789,3.795 7.65,3.905c16.913,0.651 93.826,-0 93.826,-0c0,-0 0.878,-86.313 0,-103.26c-0.171,-3.306 -1.982,-5.023 -4.263,-7.423c-4.425,-4.654 -8.252,-7.488 -13.287,-11.504c-2.615,-2.086 -4.578,-3.507 -7.922,-3.593c-29.983,-0.765 -180.975,0 -180.975,0" style="fill:none;stroke:#09334f;stroke-width:14px;"/><path d="M283.33,97.345c0,0 -0.877,86.313 0,103.26c0.171,3.306 1.982,5.023 4.263,7.423c4.426,4.654 8.253,7.488 13.288,11.504c2.615,2.086 4.578,3.508 7.922,3.593c29.983,0.765 45.656,-0 45.656,-0" style="fill:none;stroke:#09334f;stroke-width:14px;"/><circle cx="59.2" cy="292.166" r="38.535" style="fill:#09334f;"/><circle cx="449.395" cy="292.166" r="38.535" style="fill:#09334f;"/><circle cx="245.911" cy="216.623" r="14.559" style="fill:#09334f;"/><circle cx="134.817" cy="365.132" r="14.559" style="fill:#09334f;"/><circle cx="282.55" cy="417.946" r="14.559" style="fill:#09334f;"/><circle cx="163.936" cy="292.166" r="14.559" style="fill:#09334f;"/><circle cx="59.2" cy="292.166" r="24.097" style="fill:#25af7c;"/><circle cx="449.395" cy="292.166" r="24.097" style="fill:#25af7c;"/><g><circle cx="163.936" cy="178.088" r="38.535" style="fill:#09334f;"/><ellipse cx="163.936" cy="177.968" rx="24.996" ry="24.049" style="fill:#3e833f;"/><rect x="138.94" y="153.919" width="49.992" height="24.049" style="fill:#3e833f;"/><ellipse cx="163.936" cy="153.919" rx="24.996" ry="24.049" style="fill:#92b536;"/></g><g><circle cx="283.213" cy="123.204" r="38.535" style="fill:#09334f;"/><ellipse cx="283.213" cy="123.083" rx="24.996" ry="24.049" style="fill:#3e833f;"/><rect x="258.217" y="99.035" width="49.992" height="24.049" style="fill:#3e833f;"/><ellipse cx="283.213" cy="99.035" rx="24.996" ry="24.049" style="fill:#92b536;"/></g><g><circle cx="354.459" cy="222.465" r="38.535" style="fill:#09334f;"/><ellipse cx="354.459" cy="222.345" rx="24.996" ry="24.049" style="fill:#3e833f;"/><rect x="329.463" y="198.296" width="49.992" height="24.049" style="fill:#3e833f;"/><ellipse cx="354.459" cy="198.296" rx="24.996" ry="24.049" style="fill:#92b536;"/></g><g><circle cx="354.459" cy="380.494" r="38.535" style="fill:#09334f;"/><ellipse cx="354.459" cy="380.374" rx="24.996" ry="24.049" style="fill:#3e833f;"/><rect x="329.463" y="356.325" width="49.992" height="24.049" style="fill:#3e833f;"/><ellipse cx="354.459" cy="356.325" rx="24.996" ry="24.049" style="fill:#92b536;"/></g><g><circle cx="223.877" cy="347.893" r="38.535" style="fill:#09334f;"/><ellipse cx="223.877" cy="347.772" rx="24.996" ry="24.049" style="fill:#3e833f;"/><rect x="198.881" y="323.724" width="49.992" height="24.049" style="fill:#3e833f;"/><ellipse cx="223.877" cy="323.724" rx="24.996" ry="24.049" style="fill:#92b536;"/></g></g></svg>