<?xml version="1.0" encoding="UTF-8" standalone="no"?><!DOCTYPE svg PUBLIC "-//W3C//DTD SVG 1.1//EN" "http://www.w3.org/Graphics/SVG/1.1/DTD/svg11.dtd"><svg width="100%" height="100%" viewBox="0 0 512 512" version="1.1" xmlns="http://www.w3.org/2000/svg" xmlns:xlink="http://www.w3.org/1999/xlink" xml:space="preserve" xmlns:serif="http://www.serif.com/" style="fill-rule:evenodd;clip-rule:evenodd;stroke-linejoin:round;stroke-miterlimit:2;"><path d="M179.266,280.332c-18.031,19.441 -98.762,96.929 -98.762,96.929c-3.455,3.392 -8.277,5.008 -13.078,4.384c-4.801,-0.624 -9.05,-3.419 -11.523,-7.581c-20.445,-34.62 -32.2,-74.98 -32.2,-118.064c0,-43.876 12.191,-84.927 33.366,-119.948c1.935,-3.172 5.229,-5.27 8.921,-5.683c3.693,-0.413 7.369,0.907 9.956,3.573c28.522,29.37 86.698,87.815 105.49,108.927c4.249,4.774 7.257,10.839 7.257,17.746c0,7.961 -4.473,14.376 -9.427,19.717Z" style="fill:#2ba296;"/><path d="M195.039,233.473c-21.677,-20.501 -111.415,-114.641 -111.415,-114.641c-4.847,-4.987 -5.026,-12.869 -0.41,-18.071c35.63,-39.586 84.647,-66.898 139.894,-74.743c3.916,-0.531 7.871,0.655 10.848,3.255c2.976,2.6 4.684,6.359 4.684,10.311c0.036,45.507 0.036,177.247 0.036,177.247c0,13.8 -11.198,25.003 -24.991,25.003c-7.408,0 -13.697,-3.681 -18.646,-8.361Z" style="fill:#4ca7ce;"/><path d="M320.156,261.62c-2.326,-2.056 -3.793,-5.061 -3.793,-8.406c-0,-3.36 1.48,-6.377 3.824,-8.434l109.684,-110.817c3.562,-3.599 8.587,-5.35 13.614,-4.744c5.027,0.606 9.492,3.501 12.096,7.843c20.763,34.814 32.716,75.491 32.716,118.938c-0,40.674 -10.476,78.92 -28.875,112.186c-1.85,3.32 -5.117,5.612 -8.869,6.221c-3.752,0.609 -7.576,-0.532 -10.381,-3.096c-31.797,-29.041 -120.016,-109.691 -120.016,-109.691Z" style="fill:#2c9f94;"/><path d="M255.131,344.247c-3.987,-6.76 -6.276,-14.639 -6.276,-23.048c0,-25.088 20.368,-45.457 45.456,-45.457c12.471,0 23.776,5.033 31.992,13.177l105.808,96.729c5.795,5.298 6.386,14.221 1.341,20.237c-24.345,28.749 -55.533,51.528 -91.046,65.785c-6.467,2.561 -13.834,-0.007 -17.306,-6.034c-17.863,-30.958 -69.969,-121.389 -69.969,-121.389Z" style="fill:#e78636;"/><path d="M209.481,298.468c18.238,29.195 97.056,167.18 97.056,167.18c2.076,3.575 2.287,7.935 0.567,11.695c-1.72,3.759 -5.157,6.45 -9.219,7.217c-13.593,2.443 -27.589,3.737 -41.885,3.737c-67.38,-0 -128.099,-28.75 -170.547,-74.642c-5.046,-5.534 -4.81,-14.068 0.535,-19.314c24.634,-24.217 89.949,-88.571 100.135,-98.569c3,-2.944 6.585,-5.294 10.983,-5.294c5.491,0 9.774,3.826 12.375,7.99Z" style="fill:#c93c4a;"/><path d="M269.491,23.036c0.168,-0 0.988,-0.012 1.296,0.01c60.455,4.205 115.26,32.223 154.377,73.814c5.117,5.514 5.014,14.07 -0.233,19.46c-14.795,15.251 -45.293,46.67 -74.271,76.93c-12.319,12.864 -27.543,28.512 -45.794,46.515c-7.984,7.875 -17.303,8.607 -26.718,4.782c-1.504,-0.61 -2.972,-1.396 -4.473,-2.101c-11.592,-5.448 -18.986,-17.111 -18.967,-29.92c0.065,-42.479 0.324,-176.272 0.435,-176.651c0.796,-7.217 6.92,-12.839 14.348,-12.839Z" style="fill:#234a5f;"/></svg>