<?xml version="1.0" encoding="UTF-8" standalone="no"?><!DOCTYPE svg PUBLIC "-//W3C//DTD SVG 1.1//EN" "http://www.w3.org/Graphics/SVG/1.1/DTD/svg11.dtd"><svg width="100%" height="100%" viewBox="0 0 512 512" version="1.1" xmlns="http://www.w3.org/2000/svg" xmlns:xlink="http://www.w3.org/1999/xlink" xml:space="preserve" xmlns:serif="http://www.serif.com/" style="fill-rule:evenodd;clip-rule:evenodd;stroke-linejoin:round;stroke-miterlimit:2;"><path d="M98.62,233.434l125.259,0.218l-0,81.429c-0,-0 -82.054,-0.203 -85.071,-0.217c-0.074,-0.001 -0.148,-0.001 -0.222,-0.001c-12.627,-0 -22.878,10.251 -22.878,22.878l0,9.244c0,12.626 10.251,22.877 22.878,22.877l117.651,0.529l-0,82.429l-157.617,-0c-41.919,-0 -75.952,-34.033 -75.952,-75.951l0,-62.006l0.195,-0c-0.129,-1.809 -0.195,-3.636 -0.195,-5.478c0,-41.918 34.033,-75.951 75.952,-75.951Z" style="fill:url(#_Linear1);"/><path d="M98.62,196.602l125.259,0.218l-0,81.429c-0,0 -82.054,-0.202 -85.071,-0.217c-0.074,-0 -0.148,-0.001 -0.222,-0.001c-12.627,0 -22.878,10.251 -22.878,22.878l0,82.587c0,12.627 10.251,22.878 22.878,22.878l117.651,0.529l-0,82.429l-157.617,-0c-41.919,-0 -75.952,-34.033 -75.952,-75.952l0,-135.349l0.195,0c-0.129,-1.809 -0.195,-3.635 -0.195,-5.477c0,-41.919 34.033,-75.952 75.952,-75.952Z" style="fill:#4e0c87;"/><path d="M489.332,385.714l-0,27.666c-0,41.919 -34.033,75.952 -75.952,75.952l-157.143,-0l-0,-82.429l81.194,-0c-0.001,-0.166 32.744,-0.016 35.761,-0.001c0.074,0 0.148,0.001 0.222,0.001c12.627,-0 22.878,-9.251 22.878,-21.878l93.04,0.689Z" style="fill:#1f0a62;"/><path d="M489.332,326.871l-0,43.52l-0.195,0c0.129,1.809 0.195,3.636 0.195,5.478c-0,41.918 -34.033,75.951 -75.952,75.951l-157.143,-0l-0,-81.429l81.194,0c-0.001,-0.166 32.744,-0.015 35.761,-0.001c0.074,0.001 0.148,0.001 0.222,0.001c12.627,0 22.878,-10.251 22.878,-22.878l-0,-20.642l93.04,0Z" style="fill:#4e0c87;"/><path d="M22.668,162.583l0,-27.667c0,-41.918 34.033,-75.951 75.952,-75.951l157.617,-1.072l-0,82.429l-81.668,1.072c0.001,0.166 -32.744,0.015 -35.761,0.001c-0.074,-0.001 -0.148,-0.001 -0.222,-0.001c-12.627,0 -22.878,9.251 -22.878,21.878l-93.04,-0.689Z" style="fill:#1f0a62;"/><path d="M22.668,147.082l0,-43.52l0.195,0c-0.129,-1.809 -0.195,-3.635 -0.195,-5.477c0,-41.919 34.033,-75.952 75.952,-75.952l157.617,-1.072l-0,81.429l-81.668,1.072c0.001,0.167 -32.744,0.016 -35.761,0.001c-0.074,-0 -0.148,-0.001 -0.222,-0.001c-12.627,0 -22.878,10.252 -22.878,22.878l0,20.642l-93.04,0Z" style="fill:#4e0c87;"/><path d="M373.192,141.206c-3.017,0.015 -35.762,0.166 -35.761,-0.001l-48.06,-0.141l0,-76.429l106.921,0.142l-0,2.254c5.493,-1.468 11.213,-2.254 17.088,-2.254c41.919,-0 76.087,28.124 76.087,70.043c-0,1.842 -0.066,3.668 -0.195,5.477l0.195,0l-0,98.518c-0,41.919 -34.033,75.951 -75.952,75.951l-157.278,0.574l-0,-80.428l117.312,-1.575l0,-1.528c12.627,-0 22.743,-4.344 22.743,-16.97l-0,-50.756c-0,-12.626 -10.251,-22.878 -22.878,-22.878c-0.074,0 -0.148,0.001 -0.222,0.001Z" style="fill:#1431a0;"/><path d="M413.38,22.133c41.919,0 75.952,34.033 75.952,75.952c-0,1.842 -0.066,3.668 -0.195,5.477l0.195,0l-0,98.518c-0,41.919 -34.033,75.951 -75.952,75.951l-157.278,1.574l-0,-82.428l117.312,-1.103c12.627,-0 22.878,-10.252 22.878,-22.878l-0,-46.756c-0,-12.626 -10.251,-22.878 -22.878,-22.878c-0.074,0 -0.148,0.001 -0.222,0.001c-3.017,0.015 -83.821,-0.142 -83.821,-0.142l0,-81.429l124.009,0.141Z" style="fill:#039bf0;"/><rect x="22.668" y="196.602" width="95.01" height="95.01" style="fill:#4e0c87;"/><defs><linearGradient id="_Linear1" x1="0" y1="0" x2="1" y2="0" gradientUnits="userSpaceOnUse" gradientTransform="matrix(-200.6,2.45664e-14,-2.45664e-14,-200.6,223.268,410.347)"><stop offset="0" style="stop-color:#1f0a62;stop-opacity:1"/><stop offset="1" style="stop-color:#4e0c87;stop-opacity:1"/></linearGradient></defs></svg>