<?xml version="1.0" encoding="UTF-8" standalone="no"?><!DOCTYPE svg PUBLIC "-//W3C//DTD SVG 1.1//EN" "http://www.w3.org/Graphics/SVG/1.1/DTD/svg11.dtd"><svg width="100%" height="100%" viewBox="0 0 64 64" version="1.1" xmlns="http://www.w3.org/2000/svg" xmlns:xlink="http://www.w3.org/1999/xlink" xml:space="preserve" xmlns:serif="http://www.serif.com/" style="fill-rule:evenodd;clip-rule:evenodd;stroke-linejoin:round;stroke-miterlimit:2;"><path d="M10.086,4l43.828,-0c3.359,-0 6.086,2.727 6.086,6.086l0,43.828c0,3.359 -2.727,6.086 -6.086,6.086l-43.828,0c-3.359,0 -6.086,-2.727 -6.086,-6.086l-0,-43.828c-0,-3.359 2.727,-6.086 6.086,-6.086Zm-0,3c-1.703,-0 -3.086,1.383 -3.086,3.086l-0,43.828c-0,1.703 1.383,3.086 3.086,3.086l43.828,0c1.703,0 3.086,-1.383 3.086,-3.086l-0,-43.828c-0,-1.703 -1.383,-3.086 -3.086,-3.086l-43.828,-0Z" style="fill-opacity:0.75;"/></svg>