<?xml version="1.0" encoding="UTF-8" standalone="no"?><!DOCTYPE svg PUBLIC "-//W3C//DTD SVG 1.1//EN" "http://www.w3.org/Graphics/SVG/1.1/DTD/svg11.dtd"><svg width="100%" height="100%" viewBox="0 0 123 123" version="1.1" xmlns="http://www.w3.org/2000/svg" xmlns:xlink="http://www.w3.org/1999/xlink" xml:space="preserve" xmlns:serif="http://www.serif.com/" style="fill-rule:evenodd;clip-rule:evenodd;stroke-linejoin:round;stroke-miterlimit:2;"><path d="M28.884,85.977c-3.513,-1.898 -6.976,-4.096 -10.364,-6.585c-10.207,-7.499 -16.161,-14.969 -16.41,-15.283l-2.11,-2.669l2.11,-2.669c0.249,-0.314 6.203,-7.784 16.41,-15.282c13.64,-10.022 28.482,-15.319 42.92,-15.319c7.118,0 14.335,1.288 21.457,3.794l14.5,-14.5l8.019,8.019l-11.42,11.42c3.512,1.898 6.975,4.096 10.364,6.586c10.207,7.499 16.161,14.968 16.409,15.282l2.111,2.669l-2.111,2.669c-0.248,0.314 -6.202,7.784 -16.409,15.283c-13.64,10.021 -28.482,15.318 -42.92,15.318c-7.119,0 -14.335,-1.288 -21.457,-3.794l-14.407,14.407l-8.019,-8.019l11.327,-11.327Zm43.951,-43.951c-3.345,-1.97 -7.24,-3.101 -11.395,-3.101c-12.415,0 -22.516,10.1 -22.516,22.515c0,4.155 1.132,8.05 3.102,11.395l20.14,-20.14c-0.306,-0.057 -0.612,-0.094 -0.916,-0.11c-5.471,-0.289 -10.106,3.389 -12.319,8.855c-2.432,-7.567 3.83,-14.947 11.231,-16.023c2.815,-0.328 5.626,0.072 8.15,1.132l4.523,-4.523Zm-36.649,36.649c-3.362,-4.911 -5.332,-10.847 -5.332,-17.235c0,-7.317 2.584,-14.041 6.885,-19.31c-5.469,2.454 -10.185,5.419 -13.927,8.152c-5.787,4.227 -10.124,8.502 -12.598,11.158c2.472,2.655 6.81,6.93 12.598,11.157c3.168,2.314 7.034,4.793 11.463,6.989l0.911,-0.911Zm13.859,2.179c3.345,1.97 7.24,3.102 11.395,3.102c12.415,0 22.516,-10.101 22.516,-22.516c0,-4.155 -1.132,-8.05 -3.102,-11.395l-4.502,4.502c3.812,9.497 -3.187,23.223 -14.912,19.402c5.422,-2.191 9.246,-6.667 8.846,-12.694c0.005,-0.204 -0.003,-0.409 -0.025,-0.617l-20.216,20.216Zm36.649,-36.649c3.362,4.911 5.332,10.847 5.332,17.235c0,7.317 -2.584,14.041 -6.885,19.31c5.468,-2.454 10.184,-5.419 13.927,-8.152c5.786,-4.227 10.124,-8.503 12.598,-11.158c-2.473,-2.654 -6.81,-6.93 -12.598,-11.157c-3.168,-2.314 -7.034,-4.793 -11.463,-6.989l-0.911,0.911Z" style="fill:#f00;"/></svg>