<?xml version="1.0" encoding="UTF-8" standalone="no"?><!DOCTYPE svg PUBLIC "-//W3C//DTD SVG 1.1//EN" "http://www.w3.org/Graphics/SVG/1.1/DTD/svg11.dtd"><svg width="100%" height="100%" viewBox="0 0 123 123" version="1.1" xmlns="http://www.w3.org/2000/svg" xmlns:xlink="http://www.w3.org/1999/xlink" xml:space="preserve" xmlns:serif="http://www.serif.com/" style="fill-rule:evenodd;clip-rule:evenodd;stroke-linejoin:round;stroke-miterlimit:2;"><path d="M120.769,58.771l2.111,2.669l-2.111,2.669c-0.248,0.314 -6.202,7.784 -16.409,15.283c-13.64,10.021 -28.482,15.318 -42.92,15.318c-14.438,-0 -29.28,-5.297 -42.92,-15.318c-10.207,-7.499 -16.161,-14.969 -16.41,-15.283l-2.11,-2.669l2.11,-2.669c0.249,-0.314 6.203,-7.784 16.41,-15.282c13.64,-10.022 28.482,-15.319 42.92,-15.319c14.438,0 29.28,5.297 42.92,15.319c10.207,7.499 16.161,14.968 16.409,15.282Zm-59.329,25.185c12.415,-0 22.516,-10.101 22.516,-22.516c-0,-12.415 -10.101,-22.515 -22.516,-22.515c-12.415,-0 -22.516,10.1 -22.516,22.515c0,12.415 10.101,22.516 22.516,22.516Zm-1.278,-38.539c6.005,-0.7 11.994,1.912 15.217,7.186c5.751,9.411 -1.385,25.438 -13.939,21.346c5.422,-2.191 9.246,-6.667 8.846,-12.694c0.105,-3.764 -4.642,-8.438 -9.036,-8.67c-5.471,-0.289 -10.106,3.389 -12.319,8.855c-2.432,-7.567 3.83,-14.947 11.231,-16.023Zm-48.948,16.023c2.472,2.655 6.81,6.93 12.598,11.157c3.742,2.733 8.458,5.698 13.927,8.152c-4.301,-5.269 -6.885,-11.993 -6.885,-19.309c0,-7.317 2.584,-14.041 6.885,-19.31c-5.469,2.454 -10.185,5.419 -13.927,8.152c-5.787,4.227 -10.124,8.502 -12.598,11.158Zm87.854,11.158c5.786,-4.227 10.124,-8.503 12.598,-11.158c-2.473,-2.654 -6.81,-6.93 -12.598,-11.157c-3.742,-2.733 -8.458,-5.698 -13.927,-8.152c4.301,5.269 6.885,11.993 6.885,19.309c-0,7.317 -2.584,14.041 -6.885,19.31c5.468,-2.454 10.184,-5.419 13.927,-8.152Z" style="fill:#f00;"/></svg>