<?xml version="1.0" encoding="UTF-8" standalone="no"?><!DOCTYPE svg PUBLIC "-//W3C//DTD SVG 1.1//EN" "http://www.w3.org/Graphics/SVG/1.1/DTD/svg11.dtd"><svg width="100%" height="100%" viewBox="0 0 512 512" version="1.1" xmlns="http://www.w3.org/2000/svg" xmlns:xlink="http://www.w3.org/1999/xlink" xml:space="preserve" xmlns:serif="http://www.serif.com/" style="fill-rule:evenodd;clip-rule:evenodd;stroke-linejoin:round;stroke-miterlimit:2;"><g opacity="0.96"><path d="M209.918,457.792l-159.006,0l0,-190.066c27.059,34.476 128.812,163.33 159.006,190.066Z" style="fill:#50117b;"/><path d="M269.688,66.139c1.422,-7.426 1.827,-15.284 1.08,-22.875l-0.001,-0.001c-0.29,-2.948 0.679,-5.882 2.668,-8.076c1.989,-2.195 4.814,-3.447 7.776,-3.447l190.038,-0c4.973,-0 9.011,4.038 9.011,9.011l0,192.04c0,3.741 -1.581,7.308 -4.353,9.82c-2.772,2.513 -6.477,3.737 -10.2,3.37c-8.106,-0.798 -16.504,-0.334 -24.409,1.239c-7.906,1.572 -15.842,4.357 -23.025,8.196c-7.183,3.84 -14.1,9.047 -20.072,14.84c-28.956,28.083 -105.675,104.836 -133.66,133.659c-5.565,5.732 -10.562,12.377 -14.249,19.274c-3.686,6.897 -6.36,14.518 -7.87,22.109c-0.81,4.068 -1.383,11.634 -1.558,15.857c0,-0 -14.799,-15.299 -13.564,-21.677c5.341,-27.57 55.416,-77.985 88.062,-113.811c32.646,-35.825 63.486,-103.782 38.994,-177.658c-18.511,-55.832 -48.135,-73.478 -84.668,-81.87Z" style="fill:#261251;"/><path d="M201.791,447.312c-28.633,-23.115 -96.684,-81.009 -136.777,-131.479c-18.279,-23.01 -14.102,-49.496 -14.102,-49.496c6.642,0.265 13.378,-0.281 19.79,-1.557c7.906,-1.572 15.842,-4.357 23.025,-8.196c7.183,-3.84 14.1,-9.047 20.072,-14.84c28.956,-28.083 105.675,-104.836 133.66,-133.659c5.565,-5.732 10.562,-12.377 14.249,-19.274c3.686,-6.897 6.36,-14.518 7.87,-22.109c0.038,-0.187 0.074,-0.375 0.11,-0.563c36.533,8.392 78.815,29.379 97.326,85.211c24.492,73.876 4.931,135.44 -27.715,171.265c-32.646,35.826 -96.021,87.466 -101.362,115.037c-1.236,6.378 -6.527,16.699 -10.71,19.298c-9.87,6.132 -18.161,-3.765 -25.436,-9.638Z" style="fill:#50117b;"/><path d="M236.806,457.792c-0.965,10.847 -12.625,-1.496 -18.741,4.62c-0.952,0.952 -3.812,-0.782 -8.147,-4.62l26.888,0Z" style="fill:#ad68cc;"/><path d="M240.77,457.773l0.164,0.019c-0.152,3.658 -0.057,7.331 0.298,10.944l0.001,0.001c0.29,2.948 -0.679,5.882 -2.668,8.076c-1.989,2.195 -4.814,3.447 -7.776,3.447l-190.038,0c-4.973,0 -9.011,-4.038 -9.011,-9.011l-0,-192.04c-0,-3.741 1.581,-7.308 4.353,-9.82c2.772,-2.513 6.477,-3.737 10.2,-3.37c1.531,0.151 5.514,0.42 6.032,0.437c9.162,0.302 18.123,3.806 24.728,10.41l153.659,153.659c7.401,7.401 10.465,17.198 10.058,27.248Z" style="fill:#7e30a7;"/><path d="M202.696,31.862c0.432,10.842 -17.858,19.026 -27.82,28.988l-103.96,98.58c-11.77,13.523 -21.747,29.911 -2.234,49.424c0.316,0.316 -6.656,14.116 -6.334,14.421c-5.283,2.024 -11.254,2.03 -16.693,-0.223c-8.423,-3.489 -13.915,-11.709 -13.915,-20.826l-0,-85.704c-0,-46.792 37.99,-84.782 84.782,-84.782l86.174,-0l0,0.122Z" style="fill:#bc6ce0;"/><path d="M222.942,36.484c2.18,1.906 3.943,4.317 5.098,7.105c2.971,7.172 1.329,15.428 -4.161,20.917l-153.659,153.659c-2.283,2.284 -4.974,4.001 -7.872,5.11c-0.322,-0.305 -0.642,-0.616 -0.957,-0.932c-19.514,-19.513 -19.514,-51.197 -0,-70.71l105.142,-105.143c9.962,-9.962 23.096,-14.838 36.163,-14.628l0,-0.122l7.611,-0c4.746,-0 9.206,1.747 12.635,4.744Z" style="fill:#9246b5;"/><path d="M480.26,364.01l0,31.468c0,46.792 -37.99,84.782 -84.782,84.782l-62.947,0c7.279,-0.697 34.736,-5.115 58.446,-24.281l89.283,-91.969Z" style="fill:#7c36a1;"/><path d="M354.575,480.26l-52.882,0c13.067,0.21 26.03,-9.547 35.992,-19.509l100.219,-101.294c19.513,-19.513 24.067,-41.221 12.705,-69.8c-0.165,-0.415 -0.635,-0.627 -0.957,-0.932c5.283,-2.024 11.254,-2.03 16.693,0.223c8.423,3.489 13.915,11.709 13.915,20.826l0,66.206l-89.037,89.037c-9.962,9.962 -23.581,15.453 -36.648,15.243Z" style="fill:#5e2182;"/><path d="M289.058,475.516c-2.18,-1.906 -3.943,-4.317 -5.098,-7.105c-2.971,-7.172 -1.329,-15.428 4.161,-20.917l153.659,-153.659c2.283,-2.284 4.974,-4.001 7.872,-5.11c0.322,0.305 0.642,0.616 0.957,0.932c19.514,19.513 19.514,51.197 0,70.71l-105.142,105.143c-9.962,9.962 -23.096,14.838 -36.163,14.628l-0,0.122l-7.611,0c-4.746,0 -9.206,-1.747 -12.635,-4.744Z" style="fill:#281251;"/><path d="M169.447,348.917c-2.973,2.974 -3.968,7.393 -2.556,11.353c0.927,2.571 1.421,5.343 1.421,8.229c-0,13.694 -11.118,24.811 -24.811,24.811c-13.694,0 -24.811,-11.117 -24.811,-24.811c-0,-13.693 11.117,-24.811 24.811,-24.811c3.174,0 6.21,0.598 9.001,1.686c3.37,1.333 7.21,0.538 9.773,-2.025c12.55,-12.538 46.681,-46.669 59.505,-59.493c2.703,-2.704 3.32,-6.857 1.52,-10.229c-2.848,-5.242 -4.459,-11.248 -4.459,-17.627c0,-20.508 16.651,-37.159 37.159,-37.159c20.508,0 37.159,16.651 37.159,37.159c-0,20.508 -16.651,37.159 -37.159,37.159c-6.193,-0 -12.034,-1.519 -17.171,-4.203c-3.696,-1.908 -8.201,-1.207 -11.142,1.734c-12.897,12.884 -45.261,45.248 -58.24,58.227Zm197.567,-197.567c-2.553,2.554 -3.344,6.381 -2.013,9.737c1.101,2.795 1.702,5.839 1.702,9.021c-0,13.694 -11.118,24.811 -24.811,24.811c-13.694,0 -24.811,-11.117 -24.811,-24.811c-0,-13.693 11.117,-24.811 24.811,-24.811c3.586,0 6.995,0.763 10.074,2.134c2.606,1.153 5.652,0.585 7.666,-1.43c16.604,-16.6 83.837,-83.834 83.837,-83.834c1.756,-1.756 4.608,-1.756 6.364,-0c1.756,1.756 1.756,4.608 0,6.364c0,-0 -64.666,64.666 -82.819,82.819Z" style="fill:#fff;"/></g></svg>