<?xml version="1.0" encoding="UTF-8" standalone="no"?><!DOCTYPE svg PUBLIC "-//W3C//DTD SVG 1.1//EN" "http://www.w3.org/Graphics/SVG/1.1/DTD/svg11.dtd"><svg width="100%" height="100%" viewBox="0 0 64 64" version="1.1" xmlns="http://www.w3.org/2000/svg" xmlns:xlink="http://www.w3.org/1999/xlink" xml:space="preserve" xmlns:serif="http://www.serif.com/" style="fill-rule:evenodd;clip-rule:evenodd;stroke-linejoin:round;stroke-miterlimit:2;"><path d="M5.434,7l53.132,-0c2.999,-0 5.434,2.435 5.434,5.434l0,39.132c0,2.999 -2.435,5.434 -5.434,5.434l-53.132,-0c-2.999,-0 -5.434,-2.435 -5.434,-5.434l0,-39.132c0,-2.999 2.435,-5.434 5.434,-5.434Z" style="fill:#a6cbd5;"/><path d="M5.434,7l53.132,-0c2.999,-0 5.434,2.435 5.434,5.434l0,39.132c0,2.999 -2.435,5.434 -5.434,5.434l-53.132,-0c-2.999,-0 -5.434,-2.435 -5.434,-5.434l0,-39.132c0,-2.999 2.435,-5.434 5.434,-5.434Zm-0,3c-1.343,-0 -2.434,1.091 -2.434,2.434l0,39.132c0,1.343 1.091,2.434 2.434,2.434l53.132,-0c1.343,-0 2.434,-1.091 2.434,-2.434l0,-39.132c0,-1.343 -1.091,-2.434 -2.434,-2.434l-53.132,-0Z"/><path d="M52,32c-0,-1.656 1.344,-3 3,-3c1.656,-0 3,1.344 3,3c0,1.656 -1.344,3 -3,3c-1.656,0 -3,-1.344 -3,-3Z"/></svg>