<?xml version="1.0" encoding="UTF-8" standalone="no"?><!DOCTYPE svg PUBLIC "-//W3C//DTD SVG 1.1//EN" "http://www.w3.org/Graphics/SVG/1.1/DTD/svg11.dtd"><svg width="100%" height="100%" viewBox="0 0 512 512" version="1.1" xmlns="http://www.w3.org/2000/svg" xmlns:xlink="http://www.w3.org/1999/xlink" xml:space="preserve" xmlns:serif="http://www.serif.com/" style="fill-rule:evenodd;clip-rule:evenodd;stroke-linecap:round;stroke-linejoin:round;stroke-miterlimit:1.5;"><path d="M113.679,401.278l48.538,-0l-0,8.787l-48.538,-0l-0,-8.787Zm-44.327,7.192l-0,1.595l-48.539,-0l0,-8.787l54.822,-0l14.136,29.055l14.136,-29.055l9.772,-0l-22.751,46.762l-2.384,-0l-19.192,-39.57Zm-48.539,38.542l0,-27.312l48.539,-0l-0,8.787l-39.752,-0l0,9.738l39.752,0l-0,8.787l-48.539,0Zm92.866,0l-0,-27.312l48.538,-0l-0,8.787l-39.752,-0l0,9.738l39.752,0l-0,8.787l-48.538,0Zm361.417,-36.947l-37.648,-0l0,-8.787l37.648,-0c6.794,0.481 12.153,6.082 12.153,12.998c0,3.425 -1.316,6.545 -3.471,8.88c2.809,2.502 4.58,6.146 4.58,10.2c-0,7.405 -5.907,13.442 -13.262,13.651l-0,0.005l-37.648,0l0,-27.312l37.648,-0c2.34,-0.296 4.141,-2.423 4.141,-4.844c-0,-2.42 -1.801,-4.495 -4.141,-4.791Zm-0,28.16c2.561,-0.201 4.581,-2.256 4.581,-4.869c-0,-2.613 -2.02,-4.668 -4.581,-4.869l-28.861,-0l0,9.738l28.861,0Zm-181.476,-36.947l-0,8.787l-57.157,-0l-0,-8.787l57.157,-0Zm-24.185,45.734l-8.787,0l-0,-27.312l8.787,-0l-0,27.312Zm126.811,-32.427l6.776,-13.307l6.102,-0l24.685,45.734l-9.99,0l-4.799,-8.893l-16.593,-0l4.474,-8.787l7.377,-0l-8.067,-14.951l-0.104,0.204l-9.861,0Zm5.387,8.787l-12.037,23.64l-9.86,0l12.036,-23.64l9.861,0Zm-224.081,-13.307l-5.856,-0l0,-8.787l9.17,-0l38.59,33.928l-0,-33.928l8.787,-0l-0,45.734l-8.787,0l-0,-0.106l-41.904,-36.841Zm2.931,36.947l-8.787,0l0,-27.312l8.787,-0l-0,27.312Zm146.055,0l-0,-45.734l8.787,-0l-0,36.947l39.651,0l0,8.787l-48.438,0Z" style="fill:#09334f;"/><g><path d="M354.459,288.909l-0,-147.934" style="fill:none;stroke:#09334f;stroke-width:14px;"/><path d="M449.395,226.045c0,-0 -101.443,0.5 -124.432,-0c-4.61,-0.1 -9.854,-0.182 -13.504,-3c-7.677,-5.926 -22.237,-23.983 -32.558,-32.557c-4.459,-3.706 -10.573,-5.654 -16.366,-5.89c-24.085,-0.982 -98.143,0 -98.143,0" style="fill:none;stroke:#09334f;stroke-width:14px;"/><path d="M163.936,226.045l-0,-114.078" style="fill:none;stroke:#09334f;stroke-width:14px;"/><path d="M245.911,150.502l37.302,-93.419" style="fill:none;stroke:#09334f;stroke-width:14px;"/><path d="M59.2,226.045c-0,-0 100.287,100.911 121.874,121.874c2.054,1.995 4.789,3.796 7.65,3.906c16.913,0.651 93.826,-0 93.826,-0c0,-0 0.878,-86.313 0,-103.26c-0.171,-3.306 -1.982,-5.023 -4.263,-7.423c-4.425,-4.654 -8.252,-7.488 -13.287,-11.504c-2.615,-2.086 -4.578,-3.508 -7.922,-3.593c-29.983,-0.765 -180.975,-0 -180.975,-0" style="fill:none;stroke:#09334f;stroke-width:14px;"/><path d="M283.33,31.224c0,0 -0.877,86.313 0,103.26c0.171,3.306 1.982,5.023 4.263,7.423c4.426,4.654 8.253,7.488 13.288,11.504c2.615,2.086 4.578,3.507 7.922,3.593c29.983,0.765 45.656,-0 45.656,-0" style="fill:none;stroke:#09334f;stroke-width:14px;"/><circle cx="59.2" cy="226.045" r="38.535" style="fill:#09334f;"/><circle cx="449.395" cy="226.045" r="38.535" style="fill:#09334f;"/><circle cx="245.911" cy="150.502" r="14.559" style="fill:#09334f;"/><circle cx="134.817" cy="299.011" r="14.559" style="fill:#09334f;"/><circle cx="282.55" cy="351.825" r="14.559" style="fill:#09334f;"/><circle cx="163.936" cy="226.045" r="14.559" style="fill:#09334f;"/><circle cx="59.2" cy="226.045" r="24.097" style="fill:#25af7c;"/><circle cx="449.395" cy="226.045" r="24.097" style="fill:#25af7c;"/><g><circle cx="163.936" cy="111.967" r="38.535" style="fill:#09334f;"/><ellipse cx="163.936" cy="111.847" rx="24.996" ry="24.049" style="fill:#3e833f;"/><rect x="138.94" y="87.798" width="49.992" height="24.049" style="fill:#3e833f;"/><ellipse cx="163.936" cy="87.798" rx="24.996" ry="24.049" style="fill:#92b536;"/></g><g><circle cx="283.213" cy="57.083" r="38.535" style="fill:#09334f;"/><ellipse cx="283.213" cy="56.962" rx="24.996" ry="24.049" style="fill:#3e833f;"/><rect x="258.217" y="32.913" width="49.992" height="24.049" style="fill:#3e833f;"/><ellipse cx="283.213" cy="32.913" rx="24.996" ry="24.049" style="fill:#92b536;"/></g><g><circle cx="354.459" cy="156.344" r="38.535" style="fill:#09334f;"/><ellipse cx="354.459" cy="156.223" rx="24.996" ry="24.049" style="fill:#3e833f;"/><rect x="329.463" y="132.175" width="49.992" height="24.049" style="fill:#3e833f;"/><ellipse cx="354.459" cy="132.175" rx="24.996" ry="24.049" style="fill:#92b536;"/></g><g><circle cx="354.459" cy="314.373" r="38.535" style="fill:#09334f;"/><ellipse cx="354.459" cy="314.252" rx="24.996" ry="24.049" style="fill:#3e833f;"/><rect x="329.463" y="290.204" width="49.992" height="24.049" style="fill:#3e833f;"/><ellipse cx="354.459" cy="290.204" rx="24.996" ry="24.049" style="fill:#92b536;"/></g><g><circle cx="223.877" cy="281.772" r="38.535" style="fill:#09334f;"/><ellipse cx="223.877" cy="281.651" rx="24.996" ry="24.049" style="fill:#3e833f;"/><rect x="198.881" y="257.602" width="49.992" height="24.049" style="fill:#3e833f;"/><ellipse cx="223.877" cy="257.602" rx="24.996" ry="24.049" style="fill:#92b536;"/></g></g></svg>